<svg height="350.962" viewBox="0 0 591.846 350.962" width="591.846" xmlns="http://www.w3.org/2000/svg"><g transform="translate(-3.115 64.385)"><path d="m170.192 0h8.923v-53.077h-8.923v21.615h-17.307v-21.615h-8.923v53.077h8.923v-24.115h17.308zm28.423-17.538h26.923a37.166 37.166 0 0 0 .192-3.846c0-12.615-6.731-20.308-17.5-20.308-11.538 0-18.538 9.231-18.538 21.423 0 12.615 6.923 21.308 19.577 21.308a23.577 23.577 0 0 0 14.808-5.077l-3.731-5.154a18.514 18.514 0 0 1 -10.654 3.538c-5.884 0-10.577-3.538-11.077-11.884zm9.692-17.769c5.731 0 8.923 4.269 9.077 11.885h-18.807c.538-8.116 4.308-11.886 9.731-11.886zm47.154-21.615h-20.884v6.346h12.269v38.731c0 7.962 4.731 12.885 12.923 12.885a23.034 23.034 0 0 0 10.462-2.308l-2.192-6a16.974 16.974 0 0 1 -6.423 1.346c-3.654 0-6.154-1.423-6.154-5.154zm46.154 0h-20.884v6.346h12.269v38.731c0 7.962 4.731 12.885 12.923 12.885a23.034 23.034 0 0 0 10.462-2.308l-2.192-6a16.974 16.974 0 0 1 -6.423 1.346c-3.654 0-6.154-1.423-6.154-5.154zm44.577 15.231c-11.808 0-18.385 8.731-18.385 21.385 0 13.115 6.5 21.346 18.346 21.346 11.769 0 18.346-8.538 18.346-21.423.001-12.925-6.422-21.309-18.307-21.309zm0 6.692c6.192 0 9.269 4.615 9.269 14.615 0 10.154-3.077 14.769-9.308 14.769s-9.308-4.615-9.308-14.692 3.155-14.693 9.347-14.693zm-307.154 71.922h-31.923v6.808h11.462v39.423h-11.462v6.846h31.923v-6.846h-11.461v-39.423h11.461zm24.192-1.5a5.818 5.818 0 0 0 2.385 4.846l-3.192 13.923h5.731l6-12.577c1.423-2.923 1.808-4.423 1.808-6.192a6.37 6.37 0 0 0 -12.731 0zm63.923 12.885c-3.923 0-6.654 2.115-8.923 5.192a6.676 6.676 0 0 0 -6.962-5.192c-3.885 0-6.385 2.231-8.692 5.462l-.576-4.385h-6.5v40.615h7.692v-30.962c2-2.923 3.962-4 6-4 2.462 0 2.731 1.731 2.731 5.962v29h6.962v-30.962c2-2.923 4.038-4 6-4 2.462 0 2.731 1.731 2.731 5.962v29h7.654v-30.192c-.001-8.962-3.501-11.5-8.116-11.5zm227.655 41.692h8.923v-53.077h-8.923v21.615h-17.308v-21.615h-8.923v53.077h8.923v-24.115h17.308zm52.308-9.962v-18.115c0-8.538-5.308-13.615-16.192-13.615a41.085 41.085 0 0 0 -14.231 2.769l2.115 6.077a35.955 35.955 0 0 1 10.808-2.115c5.731 0 9.038 2.115 9.038 7.385v2.654h-5.808c-12.385 0-19.308 4.808-19.308 13.346 0 7.538 5.115 12.615 13.346 12.615 5.192 0 10-1.885 12.962-5.654 1.462 3.538 4.423 5.154 8.423 5.615l1.923-5.846c-2.154-.692-3.077-1.923-3.077-5.116zm-17.616 4.654c-4.577 0-6.923-2.308-6.923-6.654 0-4.731 3.192-7.577 11.308-7.577h4.769v8.962a11.019 11.019 0 0 1 -9.154 5.269zm61.538-36.346c-7.038 0-11.269 3.654-14.308 10.462l-1.577-9.423h-12.538v6.115h5.962v28.346h-5.962v6.154h22.769v-6.154h-8.192v-15.077c2.423-7.962 6.615-12.5 12.346-12.692v8.269h6.154l1.462-14.962a18.487 18.487 0 0 0 -6.116-1.038zm46.154 0c-7.038 0-11.269 3.654-14.308 10.462l-1.577-9.423h-12.538v6.115h5.962v28.346h-5.962v6.154h22.769v-6.154h-8.192v-15.077c2.423-7.962 6.615-12.5 12.346-12.692v8.269h6.154l1.462-14.962a18.487 18.487 0 0 0 -6.116-1.038zm33.539-18.846a5.428 5.428 0 1 0 5.654 5.385 5.339 5.339 0 0 0 -5.654-5.385zm6 19.885h-20.385v6.308h11.769v28h-12.153v6.307h31.808v-6.308h-11.039zm31.115 23.077h26.923a37.169 37.169 0 0 0 .192-3.846c0-12.615-6.731-20.308-17.5-20.308-11.539 0-18.539 9.231-18.539 21.423 0 12.615 6.923 21.308 19.577 21.308a23.577 23.577 0 0 0 14.808-5.077l-3.731-5.154a18.514 18.514 0 0 1 -10.654 3.538c-5.884 0-10.576-3.538-11.076-11.884zm9.692-17.769c5.731 0 8.923 4.269 9.077 11.885h-18.807c.538-8.116 4.307-11.886 9.73-11.886zm-493.5 115.345v-18.115c0-8.538-5.308-13.615-16.192-13.615a41.085 41.085 0 0 0 -14.231 2.769l2.115 6.077a35.955 35.955 0 0 1 10.808-2.115c5.731 0 9.038 2.115 9.038 7.385v2.654h-5.807c-12.385 0-19.308 4.808-19.308 13.346 0 7.538 5.115 12.615 13.346 12.615 5.192 0 10-1.885 12.962-5.654 1.462 3.538 4.423 5.154 8.423 5.615l1.923-5.846c-2.153-.692-3.077-1.923-3.077-5.116zm-17.615 4.654c-4.577 0-6.923-2.308-6.923-6.654 0-4.731 3.192-7.577 11.308-7.577h4.769v8.962a11.019 11.019 0 0 1 -9.154 5.269zm295.269 5.308 6.615-40.615h-8l-4.231 35.269-5.269-30.115h-8.615l-5.654 30.115-4.231-35.269h-8.307l6.885 40.615h10.538l4.923-28.846 4.577 28.846zm21.538-17.538h26.923a37.162 37.162 0 0 0 .192-3.846c0-12.615-6.731-20.308-17.5-20.308-11.538 0-18.538 9.231-18.538 21.423 0 12.615 6.923 21.308 19.577 21.308a23.576 23.576 0 0 0 14.808-5.077l-3.731-5.154a18.514 18.514 0 0 1 -10.654 3.538c-5.884 0-10.576-3.538-11.076-11.884zm9.692-17.769c5.731 0 8.923 4.269 9.077 11.885h-18.807c.539-8.116 4.308-11.886 9.731-11.886zm37.923-.462v-22.116l-8.615.962v56.923h7.577l.462-4a12.82 12.82 0 0 0 10.692 5.038c10.5 0 16.154-9 16.154-21.423 0-12.923-4.423-21.308-15.115-21.308a13.869 13.869 0 0 0 -11.154 5.924zm7.962 30.231a9.388 9.388 0 0 1 -7.962-4.692v-19c2.038-3.115 4.962-5.808 8.808-5.808 5.346 0 8.346 4.269 8.346 14.692.001 10.192-3.384 14.808-9.191 14.808zm-269.653 37.653v20.615a13.146 13.146 0 0 0 -10.231-4.423c-10.038 0-16.038 9.038-16.038 21.385 0 12.769 4.846 21.346 15.269 21.346a13.6 13.6 0 0 0 11.423-6.038l.615 5h7.577v-56.923zm-7.962 22.808a9.564 9.564 0 0 1 7.962 4.5v19.231c-2.038 3.192-4.846 5.769-8.731 5.769-5.346 0-8.423-4.385-8.423-14.731 0-10.115 3.385-14.769 9.192-14.769zm37.423 17.538h26.923a37.166 37.166 0 0 0 .192-3.846c0-12.615-6.731-20.308-17.5-20.308-11.538 0-18.538 9.231-18.538 21.423 0 12.615 6.923 21.308 19.577 21.308a23.577 23.577 0 0 0 14.808-5.077l-3.731-5.154a18.514 18.514 0 0 1 -10.654 3.538c-5.884.001-10.577-3.537-11.077-11.883zm9.692-17.769c5.731 0 8.923 4.269 9.077 11.885h-18.807c.538-8.115 4.308-11.885 9.731-11.885zm64.885-5.308h-8.808l-10.346 33.462-10.308-33.462h-9.23l14.308 40.616h10.077zm17.731 23.077h26.923a37.162 37.162 0 0 0 .192-3.846c0-12.615-6.731-20.308-17.5-20.308-11.538.001-18.538 9.231-18.538 21.424 0 12.615 6.923 21.308 19.577 21.308a23.577 23.577 0 0 0 14.808-5.077l-3.731-5.154a18.514 18.514 0 0 1 -10.654 3.538c-5.885 0-10.577-3.538-11.077-11.884zm9.692-17.769c5.731 0 8.923 4.269 9.077 11.885h-18.807c.538-8.115 4.307-11.885 9.73-11.885zm47.154-21.615h-20.884v6.346h12.269v38.731c0 7.962 4.731 12.885 12.923 12.885a23.034 23.034 0 0 0 10.462-2.308l-2.192-6a16.974 16.974 0 0 1 -6.423 1.346c-3.654 0-6.154-1.423-6.154-5.154zm44.577 15.231c-11.808 0-18.385 8.731-18.385 21.385 0 13.115 6.5 21.346 18.346 21.346 11.769 0 18.346-8.538 18.346-21.423.001-12.924-6.422-21.308-18.307-21.308zm0 6.692c6.192 0 9.269 4.615 9.269 14.615 0 10.154-3.077 14.769-9.308 14.769s-9.307-4.615-9.307-14.692 3.154-14.692 9.346-14.692zm49.692-6.692a14.408 14.408 0 0 0 -11.769 6.308l-.538-5.231h-7.5v57.192l8.615-.962v-19.077a13 13 0 0 0 10.308 4.5c10.308 0 15.654-9 15.654-21.423 0-12.923-4.039-21.307-14.77-21.307zm-2.385 6.654c5.423 0 8.115 4.269 8.115 14.692 0 10.192-3.077 14.654-8.885 14.654a9.36 9.36 0 0 1 -8.038-4.538v-19c2.04-3.116 4.963-5.808 8.809-5.808zm35.885 17.5h26.923a37.162 37.162 0 0 0 .192-3.846c0-12.615-6.731-20.308-17.5-20.308-11.538 0-18.538 9.231-18.538 21.423 0 12.615 6.923 21.308 19.577 21.308a23.577 23.577 0 0 0 14.808-5.077l-3.731-5.154a18.514 18.514 0 0 1 -10.654 3.538c-5.884 0-10.577-3.538-11.077-11.884zm9.692-17.769c5.731 0 8.923 4.269 9.077 11.885h-18.807c.538-8.116 4.308-11.886 9.731-11.886zm58.115-6.346c-7.038 0-11.269 3.654-14.308 10.462l-1.577-9.423h-12.537v6.114h5.962v28.346h-5.962v6.154h22.769v-6.154h-8.192v-15.077c2.423-7.962 6.615-12.5 12.346-12.692v8.269h6.154l1.462-14.962a18.487 18.487 0 0 0 -6.116-1.038z" fill="#555"/><path d="m65.615-48.269-6 5.115 4.077 4.423a16.446 16.446 0 0 0 4.308 3.693h-59.231v7.038h64.693l3.731 4.077-3.731 4.077h-64.693v7.038h59.231a15.707 15.707 0 0 0 -4.308 3.654l-4.077 4.462 6 5.115 21.808-24.346z" fill="#a78bfa"/><path d="m413.154-34.808h6.385v-6.192h-5.577l1.654-12.077h-7.231l-1.616 12.077h-9.769l1.692-12.077h-7.269l-1.577 12.077h-6.5v6.192h5.692l-2.231 16.346h-6.307v6.154h5.5l-1.615 12.308h7.231l1.615-12.308h9.731l-1.616 12.308h7.231l1.577-12.308h6.538v-6.154h-5.692zm26.577 16.308 4.538-34.577h-8.731l-4.615 34.577zm-45.692.038 2.154-16.346h9.769l-2.192 16.346zm43.961 18.462 1.462-10.308h-10.308l-1.462 10.308z" fill="#43d399"/><path d="m509.654-4.654a5.7 5.7 0 0 0 5.692 5.769 5.7 5.7 0 0 0 5.731-5.769 5.688 5.688 0 0 0 -5.731-5.692 5.679 5.679 0 0 0 -5.692 5.692zm15.385 0a5.729 5.729 0 0 0 5.731 5.769 5.7 5.7 0 0 0 5.692-5.769 5.679 5.679 0 0 0 -5.692-5.692 5.712 5.712 0 0 0 -5.732 5.692zm15.423 0a5.7 5.7 0 0 0 5.692 5.769 5.7 5.7 0 0 0 5.731-5.769 5.688 5.688 0 0 0 -5.731-5.692 5.679 5.679 0 0 0 -5.692 5.692z" fill="#60a5fa"/><path d="m589-64.385c-10.731 0-17.731 3-16.654 12.846l1.423 13.269c.577 5.462-2.385 7.885-11.231 7.885v6.923c8.885 0 11.808 2.462 11.231 7.923l-1.423 13.27c-1.038 9.807 5.923 12.807 16.654 12.807v-6.346c-5.269 0-9.154-1.231-8.692-5.654l1.423-14.115c.769-7.538-2.538-10.269-9-11.346 6.231-1.038 9.769-4.077 9-11.346l-1.423-14.115c-.462-4.385 3.423-5.654 8.692-5.654zm-393.385 90v6.346c5.269 0 9.154 1.269 8.692 5.654l-1.423 14.115c-.769 7.308 2.615 10.269 9.538 11.385-6.885 1-10.308 3.808-9.538 11.308l1.423 14.115c.462 4.423-3.423 5.654-8.692 5.654v6.346c10.731 0 17.731-3 16.654-12.846l-1.423-13.231c-.577-5.462 2.923-7.923 11.231-7.923v-6.923c-8.346 0-11.808-2.423-11.231-7.885l1.423-13.308c1.039-9.807-5.923-12.807-16.654-12.807z" fill="#60a5fa"/><path d="m298.846 35.846c-7.423 0-14.577 2.538-21.538 8.615l4.154 4.808c6.308-5.538 12-7.077 17.192-7.077 13.423 0 16.038 10.654 16.038 25.885 0 14.192-.077 22.885-4.192 22.885-2.654 0-4.5-1.885-4.5-9.192v-22.847a23.415 23.415 0 0 0 -11.654-3.077c-10.154 0-15.577 7.077-15.577 20.154 0 10.115 3.269 17.615 11.923 17.615 5.923 0 9.077-3.692 10.615-7.385h.308c.192 4.538 2.885 10.846 9.115 10.846 9.462 0 11.615-9.923 11.615-29.308.001-17.037-4.23-31.922-23.499-31.922zm-4.385 25.846a8.608 8.608 0 0 1 4.154 1v18.77c-.692 2.269-1.962 6.231-6.615 6.231-3.962 0-5.192-4.346-5.192-11.692 0-9.886 1.73-14.309 7.654-14.309z" fill="#f87171"/><path d="m26.692 114.538h-5.577v11.5c-9.5.962-14.615 6.885-14.615 13.847 0 7.192 4.808 11.769 14.615 15.038v19.269a19.1 19.1 0 0 1 -12-5.692l-4.615 5.192a26.339 26.339 0 0 0 16.615 7.269v11.077h5.577v-11.307c10-1.308 15.269-7.923 15.269-15.731 0-9.308-6.577-13.577-15.269-16.462v-15.961a17.379 17.379 0 0 1 9.808 4.462l4.692-4.885a25.314 25.314 0 0 0 -14.5-6.115zm-5.577 18.154v13.923c-5.038-2.154-6.231-4.154-6.231-7.346.001-3.615 2.424-5.923 6.231-6.577zm5.577 24.269c5.077 2.231 6.654 4.846 6.654 8.654 0 4.615-2.269 7.385-6.654 8.269z" fill="#34d399"/><path d="m269.769 137.269h-124.154v7.038h124.154zm0 15.154h-124.154v7.077h124.154zm0 15.192h-124.154v7.077h124.154z" fill="#fb923c"/><path d="m573.346 147.346a8.276 8.276 0 0 1 -8.577-8.115c0-4.231 2.423-7.154 7.192-7.154 3.5 0 5.731 1.269 8.269 4.038l4.885-4.346c-4.231-4.538-8.423-5.846-13.654-5.846-9.077 0-15.077 5.769-15.077 12.731a10.763 10.763 0 0 0 3.731 8.692h-25.23a8.276 8.276 0 0 1 -8.577-8.115c0-4.231 2.423-7.154 7.192-7.154 3.5 0 5.731 1.269 8.269 4.038l4.885-4.346c-4.231-4.538-8.423-5.846-13.654-5.846-9.077 0-15.077 5.769-15.077 12.731 0 5.308 2.577 9.654 9.192 11.269v.269c-7.577 1.654-11.923 6.577-11.923 14.731 0 8.5 5.692 16.115 17.731 16.115 9 0 14.038-3.846 16.654-6.962v-20.614h8.846c-3.077 2.577-4.769 6.385-4.769 11.462 0 8.5 5.692 16.115 17.731 16.115 9 0 14.038-3.846 16.654-6.962v-20.615h6.192v-6.115zm-31.654 23.769c-1.769 2.115-4.769 3.346-8.385 3.346-6.692 0-9.692-4.615-9.692-10 0-5.231 3.154-11 10.423-11h7.654zm38.462 0c-1.769 2.115-4.769 3.346-8.385 3.346-6.692 0-9.692-4.615-9.692-10 0-5.231 3.154-11 10.423-11h7.654z" fill="#a78bfa"/><path d="m18.846 225.077h8.462l-.962 15.192 14.115-5.538 2.577 7.923-14.692 3.808 9.654 11.769-6.731 4.846-8.192-12.769-8.192 12.769-6.731-4.846 9.654-11.769-14.693-3.808 2.577-7.923 14.115 5.538z" fill="#fb7171"/><path d="m105.654 279.077h20.962v-6.808h-12.847v-58.307h12.846v-6.885h-20.961zm481-72h-20.962v6.885h12.846v58.308h-12.846v6.808h20.962z" fill="#fbbf24"/></g></svg>